<?xml version="1.0" encoding="utf-8"?>
<!-- Generator: Adobe Illustrator 17.1.0, SVG Export Plug-In . SVG Version: 6.00 Build 0)  -->
<!DOCTYPE svg PUBLIC "-//W3C//DTD SVG 1.1//EN" "http://www.w3.org/Graphics/SVG/1.1/DTD/svg11.dtd">
<svg version="1.1" id="Layer_1" xmlns="http://www.w3.org/2000/svg" xmlns:xlink="http://www.w3.org/1999/xlink" x="0px" y="0px"
	 viewBox="0 0 48 44" enable-background="new 0 0 48 44" xml:space="preserve">
<path fill="none" stroke="#1A1A1A" stroke-width="2" stroke-linecap="round" stroke-linejoin="round" stroke-miterlimit="10" d="
	M19,1C9.1,1,1,7.5,1,15.5c0,4.6,2.7,8.7,6.9,11.4C7.7,28.1,7.4,30.1,7,31c-0.6,1.4-2,4-2,4s4.1-1.1,6-2c2-1,3-2.1,4.3-3.3
	c1.2,0.2,2.5,0.3,3.7,0.3c9.9,0,18-6.5,18-14.5S28.9,1,19,1z"/>
<path fill="none" stroke="#1A1A1A" stroke-width="2" stroke-linecap="round" stroke-linejoin="round" stroke-miterlimit="10" d="
	M17.9,35c3.1,1.9,6.9,3.1,11.1,3.1c1.3,0,2.5-0.1,3.7-0.3C34,39,35,40.1,37,41.1c1.9,0.9,6,2,6,2s-1.4-2.6-2-4
	c-0.4-0.9-0.7-2.9-0.9-4.1c4.2-2.7,6.9-6.8,6.9-11.4c0-3.9-1.9-7.5-5-10.1"/>
</svg>
