<?xml version="1.0" encoding="utf-8"?>
<!-- Generator: Adobe Illustrator 17.1.0, SVG Export Plug-In . SVG Version: 6.00 Build 0)  -->
<!DOCTYPE svg PUBLIC "-//W3C//DTD SVG 1.1//EN" "http://www.w3.org/Graphics/SVG/1.1/DTD/svg11.dtd">
<svg version="1.1" id="Layer_1" xmlns="http://www.w3.org/2000/svg" xmlns:xlink="http://www.w3.org/1999/xlink" x="0px" y="0px"
	 viewBox="0 0 48 48" enable-background="new 0 0 48 48" xml:space="preserve">
<path fill="#1B1B1B" d="M12,10c0,0.6-0.4,1-1,1H7c-0.6,0-1-0.4-1-1V8c0-0.6,0.4-1,1-1h4c0.6,0,1,0.4,1,1V10z"/>
<path fill="#1B1B1B" d="M12,20c0,0.6-0.4,1-1,1H7c-0.6,0-1-0.4-1-1v-2c0-0.6,0.4-1,1-1h4c0.6,0,1,0.4,1,1V20z"/>
<path fill="#1B1B1B" d="M12,30c0,0.6-0.4,1-1,1H7c-0.6,0-1-0.4-1-1v-2c0-0.6,0.4-1,1-1h4c0.6,0,1,0.4,1,1V30z"/>
<path fill="#1B1B1B" d="M12,40c0,0.6-0.4,1-1,1H7c-0.6,0-1-0.4-1-1v-2c0-0.6,0.4-1,1-1h4c0.6,0,1,0.4,1,1V40z"/>
<path fill="#1B1B1B" d="M42,10c0,0.6-0.4,1-1,1h-4c-0.6,0-1-0.4-1-1V8c0-0.6,0.4-1,1-1h4c0.6,0,1,0.4,1,1V10z"/>
<path fill="#1B1B1B" d="M42,20c0,0.6-0.4,1-1,1h-4c-0.6,0-1-0.4-1-1v-2c0-0.6,0.4-1,1-1h4c0.6,0,1,0.4,1,1V20z"/>
<path fill="#1B1B1B" d="M42,30c0,0.6-0.4,1-1,1h-4c-0.6,0-1-0.4-1-1v-2c0-0.6,0.4-1,1-1h4c0.6,0,1,0.4,1,1V30z"/>
<path fill="#1B1B1B" d="M42,40c0,0.6-0.4,1-1,1h-4c-0.6,0-1-0.4-1-1v-2c0-0.6,0.4-1,1-1h4c0.6,0,1,0.4,1,1V40z"/>
<path fill="none" stroke="#1B1B1B" stroke-width="2" stroke-miterlimit="10" d="M47,45c0,1.1-0.9,2-2,2H3c-1.1,0-2-0.9-2-2V3
	c0-1.1,0.9-2,2-2h42c1.1,0,2,0.9,2,2V45z"/>
</svg>
