<?xml version="1.0" encoding="utf-8"?>
<!-- Generator: Adobe Illustrator 17.1.0, SVG Export Plug-In . SVG Version: 6.00 Build 0)  -->
<!DOCTYPE svg PUBLIC "-//W3C//DTD SVG 1.1//EN" "http://www.w3.org/Graphics/SVG/1.1/DTD/svg11.dtd">
<svg version="1.1" id="Layer_1" xmlns="http://www.w3.org/2000/svg" xmlns:xlink="http://www.w3.org/1999/xlink" x="0px" y="0px"
	 viewBox="0 0 48 48" enable-background="new 0 0 48 48" xml:space="preserve">
<path fill="none" stroke="#1B1B1B" stroke-width="2" stroke-miterlimit="10" d="M47,37c0,2.2-1.8,4-4,4h-2c-2.2,0-4-1.8-4-4v-8
	c0-2.2,1.8-4,4-4h2c2.2,0,4,1.8,4,4V37z"/>
<path fill="none" stroke="#1B1B1B" stroke-width="2" stroke-miterlimit="10" d="M11,37c0,2.2-1.8,4-4,4H5c-2.2,0-4-1.8-4-4v-8
	c0-2.2,1.8-4,4-4h2c2.2,0,4,1.8,4,4V37z"/>
<path fill="none" stroke="#1B1B1B" stroke-width="2" stroke-linejoin="round" stroke-miterlimit="10" d="M1,33v-9.5
	C1,11.1,11.4,1,24,1s23,10.1,23,22.5V33v5.8c0,1.3-0.8,2.5-2,3l-12.3,4.7c-1,0.4-2,0.5-3,0.5H24"/>
<path fill="#1B1B1B" d="M27,47c0,0.6-0.4,1-1,1h-4c-0.6,0-1-0.4-1-1v-2c0-0.6,0.4-1,1-1h4c0.6,0,1,0.4,1,1V47z"/>
</svg>
