<?xml version="1.0" encoding="UTF-8"?>
<!DOCTYPE svg  PUBLIC '-//W3C//DTD SVG 1.1//EN'  'http://www.w3.org/Graphics/SVG/1.1/DTD/svg11.dtd'>
<svg enable-background="new 0 0 1920 940" version="1.1" viewBox="0 0 1920 940" xml:space="preserve" xmlns="http://www.w3.org/2000/svg" xmlns:xlink="http://www.w3.org/1999/xlink">
	<path d="m220.4 861.3l27.4 2.8-23 24.4-4.4-27.2zm3 31.5l28.6-30.3-34-3.5 5.4 33.8z" fill="#212121"/>
	<polygon points="230 896.6 255.8 869.3 225.1 866.2" fill="#fff"/>
<polygon points="327.4 762.9 327.4 770.4 319.9 770.4 319.9 772.4 327.4 772.4 327.4 779.9 329.4 779.9 329.4 772.4 336.9 772.4 336.9 770.4 329.4 770.4 329.4 762.9" fill="#726BB1"/>
<polygon points="1368.9 455.6 1366.9 462.9 1359.7 460.9 1359.2 462.8 1366.4 464.8 1364.4 472 1366.3 472.6 1368.3 465.3 1375.6 467.3 1376.1 465.4 1368.9 463.4 1370.9 456.2" fill="#726BB1"/>
	<defs>
			<rect id="h" transform="matrix(-.7923 .6101 -.6101 -.7923 703.12 1208.4)" x="110.2" y="685" width="71.4" height="77.7"/>
	</defs>
	<clipPath id="b">
		<use overflow="visible" xlink:href="#h"/>
	</clipPath>
	<path d="m127 702.8c3.6 4.7 2.7 11.4-1.9 15-4.7 3.6-11.4 2.7-15-1.9-3.6-4.7-2.7-11.4 1.9-15 4.7-3.6 11.4-2.7 15 1.9" clip-path="url(#b)" fill="#fff"/>
	<path d="m141.5 761.5c1.4 0.2 2.8 0.4 4.1 0.5l37.2-28.6c0.3-1.4 0.5-2.7 0.6-4.1l-41.9 32.2z" clip-path="url(#b)" fill="#212121"/>
	<path d="m111.9 724.9l43.6-33.6c-1.3-0.3-2.6-0.5-3.9-0.6l-39.3 30.3c-0.2 1.2-0.3 2.5-0.4 3.9" clip-path="url(#b)" fill="#212121"/>
	<path d="m138.8 691.5c-4.6 1.2-9 3.3-13 6.3-4 3.1-7.1 6.8-9.4 10.9l22.4-17.2z" clip-path="url(#b)" fill="#212121"/>
	<path d="m130.3 757.5c0.9 0.5 1.9 1 2.9 1.4l49.9-38.5c-0.2-1.1-0.4-2.1-0.7-3.2l-52.1 40.3z" clip-path="url(#b)" fill="#212121"/>
	<path d="m160 759.9c3.4-1.2 6.6-3 9.6-5.3s5.5-5 7.6-7.9l-17.2 13.2z" clip-path="url(#b)" fill="#212121"/>
	<path d="m122.1 751.2c0.7 0.7 1.4 1.4 2.1 2l55.7-42.9c-0.4-0.9-0.9-1.7-1.4-2.6l-56.4 43.5z" clip-path="url(#b)" fill="#212121"/>
	<path d="m112.6 733.3c0.2 1 0.5 2.1 0.8 3.1l53-40.8c-0.9-0.6-1.8-1.1-2.8-1.5l-51 39.2z" clip-path="url(#b)" fill="#212121"/>
	<path d="m116.2 743.2c0.5 0.9 1 1.7 1.5 2.5l56.6-43.6c-0.7-0.7-1.3-1.4-2.1-2.1l-56 43.2z" clip-path="url(#b)" fill="#212121"/>
<polygon points="1707 699.9 1666.8 692.8 1689.7 736.9" fill="#fff"/>
	<path d="m1776.6 24.3l8.1 35.2-36.1-1.3 28-33.9zm-37.1 38l50.8 1.8-11.3-49.5-39.5 47.7z" fill="#726BB1"/>
	<polygon points="1731.6 51.2 1775 52.8 1765.3 10.4" fill="#fff"/>
	<defs>
			<rect id="g" transform="matrix(-.8047 -.5936 .5936 -.8047 1378.2 528.68)" x="754.8" y="10.7" width="42.6" height="53.9"/>
	</defs>
	<clipPath id="c">
		<use overflow="visible" xlink:href="#g"/>
	</clipPath>
	<path d="m766.8 50.2c-9.4-7-11.5-20.3-4.5-29.8 7-9.4 20.3-11.4 29.7-4.4s11.5 20.3 4.5 29.8c-6.9 9.4-20.3 11.4-29.7 4.4m23.8-32.2c-8.3-6.2-20.1-4.4-26.3 4-6.2 8.3-4.4 20.1 4 26.3 8.3 6.2 20.1 4.4 26.3-4 6.1-8.4 4.3-20.2-4-26.3" clip-path="url(#c)" fill="#212121"/>
	<path d="m787.9 55.2c-6.5 8.9-19 10.8-27.9 4.2-8.9-6.5-10.8-19-4.2-27.9 6.5-8.9 19-10.8 27.9-4.2 8.9 6.5 10.8 19 4.2 27.9" clip-path="url(#c)" fill="#726BB1"/>
<polygon points="139.6 321.4 137.5 343.3 139.7 343.5 141.5 324.5 160.2 331.9 162.1 311.5 181 318.8 182.9 298.4 202 305.6 203.9 285.2 221.8 291.8 222.5 289.7 202 282.1 200.1 302.5 181 295.4 179.1 315.7 160.2 308.4 158.3 328.8" fill="#726BB1"/>
<circle cx="1549.9" cy="288.9" r="16" fill="#fff"/>
<circle cx="209.9" cy="133.7" r="8" fill="#fff"/>
<circle cx="1470.9" cy="638.9" r="8" fill="#726BB1"/>
<polygon points="1037.5 763.5 1083.8 722.7 1034.1 712.9" fill="#726BB1"/>
<polygon points="1342.8 110.5 1301.2 64.9 1292.3 114.8" fill="#726BB1"/>
<polygon points="214.8 587.4 186.9 621.1 222.8 622.4" fill="#202020"/>
<g fill="#212121">
	<polygon points="1797.3 151.8 1802 153 1802.6 150.6 1800.2 150 1800.8 147.7 1798.5 147.1"/>
		<rect transform="matrix(-.97 -.2431 .2431 -.97 3515.8 711.55)" x="1800.6" y="135.9" width="2.4" height="5.9"/>
	<polygon points="1803.9 125.3 1802.8 130 1805.1 130.5 1805.7 128.2 1808 128.8 1808.6 126.4"/>
		<rect transform="matrix(-.9701 -.2429 .2429 -.9701 3547.9 696.95)" x="1814" y="128.6" width="5.9" height="2.4"/>
	<polygon points="1825.2 133.1 1827.5 133.7 1827 136 1829.3 136.6 1830.5 131.9 1825.8 130.7"/>
		<rect transform="matrix(-.9701 -.2428 .2428 -.9701 3562.1 728.82)" x="1824.8" y="141.9" width="2.4" height="5.9"/>
	<polygon points="1822.1 155.5 1819.7 154.9 1819.2 157.3 1823.8 158.4 1825 153.8 1822.7 153.2"/>
		<rect transform="matrix(-.9702 -.2424 .2424 -.9702 3530.4 742.29)" x="1807.9" y="152.7" width="5.9" height="2.4"/>
</g>
	<defs>
			<rect id="f" transform="matrix(-.8195 -.5731 .5731 -.8195 1422.6 1617.9)" x="927.9" y="555.3" width="76.4" height="59.3"/>
	</defs>
	<clipPath id="a">
		<use overflow="visible" xlink:href="#f"/>
	</clipPath>
	<path d="m934.6 580.6c-4.5-3.1-5.6-9.3-2.4-13.8 3.1-4.5 9.3-5.6 13.8-2.4 4.5 3.1 5.6 9.3 2.4 13.8-3.1 4.4-9.3 5.5-13.8 2.4m10.2-14.6c-3.6-2.5-8.5-1.6-11 1.9-2.5 3.6-1.6 8.5 1.9 11 3.6 2.5 8.5 1.6 11-1.9 2.6-3.6 1.7-8.5-1.9-11" clip-path="url(#a)"/>
	<path d="m977.8 612.3c-1.7 0.3-3.3-0.8-3.6-2.6-0.3-1.7 0.8-3.4 2.5-3.7s3.3 0.8 3.6 2.6c0.4 1.8-0.8 3.4-2.5 3.7" clip-path="url(#a)" fill="#fff"/>
	<path d="m961.4 600.8c-1.7 0.3-3.3-0.8-3.6-2.6-0.3-1.7 0.8-3.4 2.5-3.7s3.3 0.8 3.6 2.6c0.4 1.8-0.8 3.4-2.5 3.7" clip-path="url(#a)" fill="#fff"/>
	<path d="m945.1 589.4c-1.7 0.3-3.3-0.8-3.6-2.6-0.3-1.7 0.8-3.4 2.5-3.7s3.3 0.8 3.6 2.6c0.3 1.7-0.8 3.4-2.5 3.7" clip-path="url(#a)" fill="#fff"/>
	<path d="m980.2 629.8c-1.7 0.3-3.3-0.8-3.6-2.6-0.3-1.7 0.8-3.4 2.5-3.7s3.3 0.8 3.6 2.6-0.8 3.4-2.5 3.7" clip-path="url(#a)" fill="#fff"/>
	<path d="m963.8 618.4c-1.7 0.3-3.3-0.8-3.6-2.6-0.3-1.7 0.8-3.4 2.5-3.7s3.3 0.8 3.6 2.6c0.4 1.7-0.8 3.4-2.5 3.7" clip-path="url(#a)" fill="#fff"/>
	<path d="m947.4 606.9c-1.7 0.3-3.3-0.8-3.6-2.6-0.3-1.7 0.8-3.4 2.5-3.7s3.3 0.8 3.6 2.6c0.4 1.8-0.8 3.4-2.5 3.7" clip-path="url(#a)" fill="#fff"/>
	<path d="m931 595.4c-1.7 0.3-3.3-0.8-3.6-2.6-0.3-1.7 0.8-3.4 2.5-3.7s3.3 0.8 3.6 2.6c0.4 1.8-0.8 3.4-2.5 3.7" clip-path="url(#a)" fill="#fff"/>
	<path d="m992.2 591.8c-1.7 0.3-3.3-0.8-3.6-2.6-0.3-1.7 0.8-3.4 2.5-3.7s3.3 0.8 3.6 2.6-0.8 3.4-2.5 3.7" clip-path="url(#a)" fill="#fff"/>
	<path d="m975.8 580.3c-1.7 0.3-3.3-0.8-3.6-2.6-0.3-1.7 0.8-3.4 2.5-3.7s3.3 0.8 3.6 2.6-0.8 3.4-2.5 3.7" clip-path="url(#a)" fill="#fff"/>
	<path d="m959.4 568.9c-1.7 0.3-3.3-0.8-3.6-2.6-0.3-1.7 0.8-3.4 2.5-3.7s3.3 0.8 3.6 2.6c0.3 1.7-0.8 3.4-2.5 3.7" clip-path="url(#a)" fill="#fff"/>
	<path d="m994.5 609.3c-1.7 0.3-3.3-0.8-3.6-2.6-0.3-1.7 0.8-3.4 2.5-3.7s3.3 0.8 3.6 2.6c0.4 1.8-0.8 3.4-2.5 3.7" clip-path="url(#a)" fill="#fff"/>
	<path d="m978.2 597.9c-1.7 0.3-3.3-0.8-3.6-2.6s0.8-3.4 2.5-3.7 3.3 0.8 3.6 2.6c0.3 1.7-0.8 3.4-2.5 3.7" clip-path="url(#a)" fill="#fff"/>
	<path d="m961.8 586.4c-1.7 0.3-3.3-0.8-3.6-2.6s0.8-3.4 2.5-3.7 3.3 0.8 3.6 2.6-0.8 3.4-2.5 3.7" clip-path="url(#a)" fill="#fff"/>
	<path d="m945.4 574.9c-1.7 0.3-3.3-0.8-3.6-2.6s0.8-3.4 2.5-3.7 3.3 0.8 3.6 2.6-0.8 3.4-2.5 3.7" clip-path="url(#a)" fill="#fff"/>
	<path d="m1010.6 586.4c-1.7 0.3-3.3-0.8-3.6-2.6-0.3-1.7 0.8-3.4 2.5-3.7s3.3 0.8 3.6 2.6c0.3 1.7-0.8 3.4-2.5 3.7" clip-path="url(#a)" fill="#fff"/>
	<path d="m994.2 574.9c-1.7 0.3-3.3-0.8-3.6-2.6-0.3-1.7 0.8-3.4 2.5-3.7s3.3 0.8 3.6 2.6-0.8 3.4-2.5 3.7" clip-path="url(#a)" fill="#fff"/>
	<path d="m977.8 563.5c-1.7 0.3-3.3-0.8-3.6-2.6-0.3-1.7 0.8-3.4 2.5-3.7s3.3 0.8 3.6 2.6c0.3 1.7-0.8 3.4-2.5 3.7" clip-path="url(#a)" fill="#fff"/>
	<path d="m961.4 552c-1.7 0.3-3.3-0.8-3.6-2.6-0.3-1.7 0.8-3.4 2.5-3.7s3.3 0.8 3.6 2.6c0.4 1.8-0.8 3.4-2.5 3.7" clip-path="url(#a)" fill="#fff"/>
	<line x1="862.7" x2="1272.4" y1="491" y2="777.5" clip-path="url(#a)" fill="#fff"/>
<path d="m1731 325.6l21-25.9 6.4 26.6-27.4-0.7zm21.9-30.3l-26 32.2 34 0.8-8-33z" fill="#212121"/>
<path d="m1785 870.6l21-25.9 6.4 26.6-27.4-0.7zm21.9-30.3l-26 32.2 34 0.8-8-33z" fill="#726BB1"/>
	<defs>
			<rect id="e" transform="matrix(-.0046103 -1 1 -.0046103 807.03 2467.1)" x="1604.5" y="789.3" width="53.9" height="85.2"/>
	</defs>
	<clipPath id="d">
		<use overflow="visible" xlink:href="#e"/>
	</clipPath>
	<path d="m1613.4 857.9c4.6-1.7 8.3-5.1 10.3-9.4 4.2 2 9.2 2.3 13.9 0.6 4.6-1.7 8.3-5.1 10.3-9.4 4.4 2.1 9.4 2.3 13.9 0.6 7.3-2.6 12.1-9.6 12.1-17.3 0-2.1-0.4-4.1-1.1-6.1-3.4-9.5-13.9-14.4-23.4-11-4.6 1.7-8.3 5.1-10.3 9.4-4.2-2-9.2-2.3-13.9-0.6-4.6 1.7-8.3 5.1-10.3 9.4-4.4-2.1-9.4-2.3-13.9-0.6-7.3 2.6-12.1 9.6-12.1 17.3 0 2.1 0.4 4.1 1.1 6.1 3.4 9.5 13.9 14.4 23.4 11m36.9-49.6c8.2-3 17.3 1.3 20.3 9.5 0.6 1.7 0.9 3.5 0.9 5.3 0 6.7-4.2 12.7-10.5 15-4 1.4-8.3 1.2-12.1-0.6h-0.1c0.6-1.8 0.9-3.7 0.9-5.6 0-2.1-0.4-4.1-1.1-6.1-1.4-3.9-4.1-7.1-7.3-9.2 1.8-3.8 4.9-6.9 9-8.3m-3.7 27.8c-2.7-1.9-4.7-4.5-5.9-7.6-0.6-1.7-0.9-3.5-0.9-5.3 0-1.5 0.2-2.9 0.6-4.3 2.6 1.8 4.7 4.4 5.9 7.6 0.6 1.7 0.9 3.5 0.9 5.3 0 1.5-0.2 3-0.6 4.3m-20.6-19.1c4.1-1.5 8.5-1.1 12.2 0.6-0.6 1.8-0.9 3.7-0.9 5.6 0 2.1 0.4 4.1 1.1 6.1 1.4 3.8 3.9 7 7.3 9.2-1.7 3.8-4.9 6.8-9 8.3s-8.5 1.1-12.2-0.6c0.6-1.8 0.9-3.7 0.9-5.6 0-2.1-0.4-4.1-1.1-6.1-1.4-3.8-3.9-7-7.3-9.2 1.8-3.8 5-6.8 9-8.3m-3.6 27.9c-2.6-1.8-4.7-4.4-5.9-7.6-0.6-1.7-0.9-3.5-0.9-5.3 0-1.5 0.2-2.9 0.6-4.3 2.7 1.9 4.7 4.5 5.9 7.6 0.6 1.7 0.9 3.5 0.9 5.3 0 1.5-0.2 2.9-0.6 4.3m-30.1 1.1c-0.6-1.7-0.9-3.5-0.9-5.3 0-6.7 4.2-12.7 10.5-15 4-1.4 8.3-1.2 12.1 0.6h0.1c-0.6 1.8-0.9 3.7-0.9 5.6 0 2.1 0.4 4.1 1.1 6.1 1.4 3.9 4.1 7.1 7.3 9.2-1.7 3.8-4.9 6.8-9 8.3-8.3 3-17.4-1.3-20.3-9.5" clip-path="url(#d)" fill="#fff"/>
<g fill="#212121">
	<polygon points="1834.6 709.3 1822.2 707.7 1824 720.1 1811.7 718.4 1813.5 730.9 1801.2 729.1 1803.2 742.9 1805.2 742.6 1803.6 731.5 1815.8 733.2 1814 720.8 1826.3 722.5 1824.5 710 1836.9 711.6 1835.1 699.1 1846.3 700.5 1846.6 698.5 1832.8 696.8"/>
	<polygon points="1822.8 686.8 1824.6 699.3 1812.2 697.7 1814 710.1 1801.7 708.4 1803.5 720.9 1791.2 719.1 1793.2 732.9 1795.2 732.6 1793.6 721.5 1805.8 723.2 1804 710.8 1816.3 712.5 1814.5 700 1826.9 701.6 1825.1 689.1 1836.3 690.5 1836.6 688.5"/>
</g>
<g fill="#fff">
	<polygon points="1058.5 339.7 1056.1 349.2 1066 348.9 1063.6 358.3 1073.4 358 1071 367.4 1081.8 367.1 1081.8 365.5 1073 365.8 1075.4 356.4 1065.6 356.7 1068 347.3 1058.2 347.6 1060.5 338.1 1050.6 338.3 1052.7 329.8 1051.1 329.4 1048.6 340"/>
	<polygon points="1040 346.9 1049.8 346.6 1047.5 356.1 1057.3 355.8 1054.9 365.2 1064.7 364.9 1062.3 374.3 1073.2 374 1073.1 372.4 1064.3 372.7 1066.8 363.3 1056.9 363.6 1059.3 354.2 1049.5 354.5 1051.8 345 1042 345.2 1044 336.7 1042.5 336.3"/>
</g>
<g fill="#726BB1">
	<path d="m1815.1 471.1c-0.1 1.5 0 2.9 0.1 4.4l34.8 34.8c1.5 0.1 2.9 0.1 4.4 0.1l-39.3-39.3z"/>
	<path d="m1849.1 435.4l40.8 40.8c0.1-1.4 0.2-2.8 0.1-4.2l-36.8-36.8c-1.3 0-2.7 0-4.1 0.2"/>
	<path d="m1887.4 458.8c-1.8-4.6-4.6-8.9-8.3-12.6s-8-6.5-12.6-8.3l20.9 20.9z"/>
	<path d="m1817.7 458.9c-0.4 1.1-0.8 2.1-1.1 3.2l46.7 46.7c1.1-0.3 2.1-0.7 3.2-1.1l-48.8-48.8z"/>
	<path d="m1819.2 490c1.7 3.3 4 6.5 6.8 9.3s5.9 5.1 9.3 6.8l-16.1-16.1z"/>
	<path d="m1823.1 449.5c-0.6 0.8-1.3 1.6-1.8 2.5l52.1 52.1c0.8-0.6 1.7-1.2 2.5-1.8l-52.8-52.8z"/>
	<path d="m1840.5 437.2c-1 0.4-2.1 0.8-3.1 1.2l49.5 49.5c0.4-1 0.9-2 1.2-3.1l-47.6-47.6z"/>
	<path d="m1830.7 442.2c-0.8 0.6-1.6 1.2-2.4 1.9l52.9 52.9c0.7-0.8 1.3-1.6 1.9-2.4l-52.4-52.4z"/>
</g>
<g fill="#fff">
	<path d="m700.5 838.1c-0.1 1.5 0 2.9 0.1 4.4l34.8 34.8c1.5 0.1 2.9 0.1 4.4 0.1l-39.3-39.3z"/>
	<path d="m734.6 802.4l40.8 40.8c0.1-1.4 0.2-2.8 0.1-4.2l-36.8-36.8c-1.3 0.1-2.7 0.1-4.1 0.2"/>
	<path d="m772.9 825.9c-1.8-4.6-4.6-8.9-8.3-12.6s-8-6.5-12.6-8.3l20.9 20.9z"/>
	<path d="m703.1 825.9c-0.4 1.1-0.8 2.1-1.1 3.2l46.7 46.7c1.1-0.3 2.1-0.7 3.2-1.1l-48.8-48.8z"/>
	<path d="m704.7 857.1c1.7 3.3 4 6.5 6.8 9.3s5.9 5.1 9.3 6.8l-16.1-16.1z"/>
	<path d="m708.6 816.5c-0.6 0.8-1.3 1.6-1.8 2.5l52.1 52.1c0.8-0.6 1.7-1.2 2.5-1.8l-52.8-52.8z"/>
	<path d="m725.9 804.3c-1 0.4-2.1 0.8-3.1 1.2l49.5 49.5c0.4-1 0.9-2 1.2-3.1l-47.6-47.6z"/>
	<path d="m716.1 809.3c-0.8 0.6-1.6 1.2-2.4 1.9l52.9 52.9c0.7-0.8 1.3-1.6 1.9-2.4l-52.4-52.4z"/>
</g>
</svg>
