<?xml version="1.0" encoding="utf-8"?>
<!-- Generator: Adobe Illustrator 17.1.0, SVG Export Plug-In . SVG Version: 6.00 Build 0)  -->
<!DOCTYPE svg PUBLIC "-//W3C//DTD SVG 1.1//EN" "http://www.w3.org/Graphics/SVG/1.1/DTD/svg11.dtd">
<svg version="1.1" id="Layer_1" xmlns="http://www.w3.org/2000/svg" xmlns:xlink="http://www.w3.org/1999/xlink" x="0px" y="0px"
	 viewBox="0 0 48 48" enable-background="new 0 0 48 48" xml:space="preserve">
<path fill="none" stroke="#1A1A1A" stroke-width="2" stroke-miterlimit="10" d="M38,15c0,2.8-2.2,5-5,5l0,0c-2.8,0-5-2.2-5-5l0,0
	c0-2.8,2.2-5,5-5l0,0C35.8,10,38,12.2,38,15L38,15z"/>
<path fill="none" stroke="#1A1A1A" stroke-width="2" stroke-miterlimit="10" d="M14,34c0,0,3.1,2.9,4,4c1.1,1.3,3.4,10.5,3,9l5-6v-8
	c-0.2-0.4,11-4,18-12c1.9-2.1,3-9.6,3-13s-0.5-6.5-0.5-6.5S43.4,1,40,1S29.1,2.1,27,4c-8,7-11.6,18.2-12,18H7l-6,5
	c-1.5-0.4,7.7,1.9,9,3C11.1,30.9,14,34,14,34z"/>
<path fill="none" stroke="#1A1A1A" stroke-width="2" stroke-linecap="round" stroke-miterlimit="10" d="M9,36c0,0-0.1,0.5-0.5,0.5
	c-4.9,0-5.9,2.1-6.5,3.5c-0.5,1.3-0.5,6.5-0.5,6.5s5.2,0,6.5-0.5c1.4-0.6,3.5-1.6,3.5-6.5c0-0.4,0.5-0.5,0.5-0.5"/>
</svg>
