<?xml version="1.0" encoding="utf-8"?>
<!-- Generator: Adobe Illustrator 17.1.0, SVG Export Plug-In . SVG Version: 6.00 Build 0)  -->
<!DOCTYPE svg PUBLIC "-//W3C//DTD SVG 1.1//EN" "http://www.w3.org/Graphics/SVG/1.1/DTD/svg11.dtd">
<svg version="1.1" id="Layer_1" xmlns="http://www.w3.org/2000/svg" xmlns:xlink="http://www.w3.org/1999/xlink" x="0px" y="0px"
	 viewBox="0 0 48 48" enable-background="new 0 0 48 48" xml:space="preserve">
<path fill="none" stroke="#1A1A1A" stroke-width="2" stroke-miterlimit="10" d="M46.8,27.2c0.2-1.1,0.2-2,0.2-3.2s-0.1-2.1-0.2-3.2
	l-5.7-0.4c-0.5-2.2-1.3-4.2-2.5-6l3.7-4.3C41,8.3,39.7,7,37.9,5.6l-4.3,3.7c-1.8-1.2-3.8-2-6-2.5l-0.4-5.7C26.1,1.1,25.2,1,24,1
	s-2.1,0.1-3.2,0.2l-0.4,5.7c-2.2,0.5-4.2,1.3-6,2.5l-4.3-3.7C8.3,7,7,8.3,5.6,10.1l3.7,4.3c-1.2,1.8-2,3.8-2.5,6l-5.7,0.4
	C1.1,21.9,1,22.8,1,24s0.1,2.1,0.2,3.2l5.7,0.4c0.5,2.2,1.3,4.2,2.5,6l-3.7,4.3c1.4,1.8,2.7,3.1,4.5,4.5l4.3-3.7
	c1.8,1.2,3.8,2,6,2.5l0.4,5.7c1.1,0.2,2,0.2,3.2,0.2s2.1-0.1,3.2-0.2l0.4-5.7c2.2-0.5,4.2-1.3,6-2.5l4.3,3.7
	c1.8-1.4,3.1-2.7,4.5-4.5l-3.7-4.3c1.2-1.8,2-3.8,2.5-6L46.8,27.2z M24,33c-5,0-9-4-9-9s4-9,9-9s9,4,9,9S29,33,24,33z"/>
</svg>
