<?xml version="1.0" encoding="utf-8"?>
<!-- Generator: Adobe Illustrator 17.1.0, SVG Export Plug-In . SVG Version: 6.00 Build 0)  -->
<!DOCTYPE svg PUBLIC "-//W3C//DTD SVG 1.1//EN" "http://www.w3.org/Graphics/SVG/1.1/DTD/svg11.dtd">
<svg version="1.1" id="Layer_1" xmlns="http://www.w3.org/2000/svg" xmlns:xlink="http://www.w3.org/1999/xlink" x="0px" y="0px"
	 viewBox="0 0 48 48" enable-background="new 0 0 48 48" xml:space="preserve">
<path fill="#CFCCFF" d="M48,34c0.1,7.2-5.8,13-13,13s-13-7.8-13-15c0-9.6,4.3-26,20-26c1.9,0-2.8,3.3-5,9c-0.5,1.8-2,6,0,6
	C41.6,20.6,47.9,26.7,48,34z"/>
<path fill="#CFCCFF" d="M18.5,32c0-4.3,0.7-8.6,2-12.7c-1.5-1-3.1-1.5-4.5-1.3c-2,0-0.5-4.2,0-6c2.2-5.7,6.9-9,5-9
	C5.3,3,1,19.4,1,29c0,7.2,5.8,15,13,15c2.7,0,5.2-0.8,7.3-2.2C19.5,38.8,18.5,35.3,18.5,32z"/>
</svg>
